<svg xmlns="http://www.w3.org/2000/svg" xmlns:xlink="http://www.w3.org/1999/xlink" width="467" height="107" viewBox="0 0 467 107">
  <defs>
    <clipPath id="clip-logo_1">
      <rect width="467" height="107"/>
    </clipPath>
  </defs>
  <g id="logo_1" clip-path="url(#clip-logo_1)">
    <g id="HF_Logo_Black_Registered" transform="translate(-31.772 -20.278)">
      <path id="Path_1" data-name="Path 1" d="M55.94,92h6.879V29.878H55.94V28.64H70.531v35.2h.19a18.444,18.444,0,0,1,1.523-2.9,14.282,14.282,0,0,1,2.88-3.309,17.066,17.066,0,0,1,4.475-2.69,15.924,15.924,0,0,1,6.331-1.119,15.472,15.472,0,0,1,9.521,2.856,10.854,10.854,0,0,1,3.713,9.14V92h6.9V93.24H84.646V92h6.9V63.058a9.259,9.259,0,0,0-1.666-5.736,5.951,5.951,0,0,0-5.141-2.261,12.473,12.473,0,0,0-5.475,1.262,14.139,14.139,0,0,0-4.57,3.5A17.09,17.09,0,0,0,71.65,65.2a19.257,19.257,0,0,0-1.119,6.641V92.1h6.974v1.238H56.083Z" transform="translate(0 0.499)" fill="#fff"/>
      <path id="Path_2" data-name="Path 2" d="M76.78,39.63H98.726v1.262h-7.5l11.544,28.182,12.092-28.134h-7.45V39.678h13.71v1.262h-4.76L101.511,75.476c-1.143,2.571-2.214,5.165-3.237,7.76s-2.023,5.213-3.047,7.831a54.755,54.755,0,0,1-2.5,5.641,18.351,18.351,0,0,1-2.642,3.951,9.521,9.521,0,0,1-3,2.38,8.949,8.949,0,0,1-3.785.762,9.069,9.069,0,0,1-4.165-.809,7.522,7.522,0,0,1-2.38-1.88,5.474,5.474,0,0,1-1.166-2.237,8.354,8.354,0,0,1-.262-1.976,4.237,4.237,0,0,1,1.238-3.356,4.5,4.5,0,0,1,3.047-1.119,6.926,6.926,0,0,1,1.357.143,3.713,3.713,0,0,1,1.333.476,3.07,3.07,0,0,1,1.071,1,2.38,2.38,0,0,1,.452,1.523,3.975,3.975,0,0,1-.762,2.38,4.4,4.4,0,0,0-.762,2.38c0,.785.214,1.285.643,1.523a3.356,3.356,0,0,0,1.69.357,5.308,5.308,0,0,0,2.642-.666,8.355,8.355,0,0,0,2.38-2.19,22.8,22.8,0,0,0,2.38-4c.786-1.642,1.642-3.666,2.594-6.046l3.737-10.068L82.945,40.892H76.78Z" transform="translate(26.741 15.668)" fill="#fff"/>
      <path id="Path_3" data-name="Path 3" d="M118.5,28.64h14.615V92h6.9V93.24H125.592V85.456h-.19a25.507,25.507,0,0,1-1.071,2.594A10.806,10.806,0,0,1,122.212,91a12.472,12.472,0,0,1-3.475,2.38,12.02,12.02,0,0,1-5.165,1.023,16.947,16.947,0,0,1-7.474-1.714,20.3,20.3,0,0,1-6.236-4.57A22.159,22.159,0,0,1,95.6,81.553,19.947,19.947,0,0,1,94.03,73.7a20.255,20.255,0,0,1,1.523-7.712,21.564,21.564,0,0,1,4.118-6.4,20.708,20.708,0,0,1,6.022-4.38,16.162,16.162,0,0,1,7.141-1.666,12.449,12.449,0,0,1,7.974,2.38,13.305,13.305,0,0,1,4.308,5.9h.167V29.878h-6.9ZM103,72.722c0,3.118,0,5.927.262,8.474a21.256,21.256,0,0,0,1.357,6.5,8.64,8.64,0,0,0,3.213,4.118,12.425,12.425,0,0,0,11.9-.167,11.02,11.02,0,0,0,3.547-4.189,18.447,18.447,0,0,0,1.619-5.594,41.322,41.322,0,0,0,.452-6.093c0-2.38,0-4.332-.143-6.046A33.442,33.442,0,0,0,124.9,65.2a14.805,14.805,0,0,0-1-3.4,14.28,14.28,0,0,0-1.523-2.69,10.164,10.164,0,0,0-3.5-2.952,11.211,11.211,0,0,0-5.451-1.166,9.521,9.521,0,0,0-5.165,1.262,8.331,8.331,0,0,0-3.118,3.57,18.185,18.185,0,0,0-1.666,5.522A52.888,52.888,0,0,0,103,72.722Z" transform="translate(52.573 0.499)" fill="#fff"/>
      <path id="Path_4" data-name="Path 4" d="M114.494,77.4h6.879V41.46h-6.879V40.2h14.424v9.045h.167a20.4,20.4,0,0,1,1.166-3.047,14,14,0,0,1,2.237-3.261,12.782,12.782,0,0,1,3.451-2.642,10.33,10.33,0,0,1,4.88-1.071,8.807,8.807,0,0,1,3.594.666,7.831,7.831,0,0,1,2.38,1.69,6.5,6.5,0,0,1,1.452,2.38,8.975,8.975,0,0,1,.452,2.69,4.761,4.761,0,0,1-1.357,3.951,5.141,5.141,0,0,1-3.142.976q-3.927,0-3.927-2.38a3.975,3.975,0,0,1,.167-1.309c0-.333.262-.643.4-.976a10.087,10.087,0,0,0,.4-1.119,6.976,6.976,0,0,0,.19-1.809q0-2.856-3.142-2.856A5.57,5.57,0,0,0,135.25,42.2a11.211,11.211,0,0,0-2.856,3.023,19.3,19.3,0,0,0-2.38,4.975,21.138,21.138,0,0,0-.952,6.665V77.4h7.807v1.238h-22.4Z" transform="translate(80.786 15.1)" fill="#fff"/>
      <path id="Path_5" data-name="Path 5" d="M168.559,77.775a12.9,12.9,0,0,1-2.785,1.571,10.164,10.164,0,0,1-3.951.666,8.854,8.854,0,0,1-6.212-1.833,9.807,9.807,0,0,1-2.642-5.165h-.19c-.238.547-.571,1.214-.976,2.023a8.165,8.165,0,0,1-1.928,2.38,10.973,10.973,0,0,1-3.451,1.88,16.828,16.828,0,0,1-5.475.762,17.233,17.233,0,0,1-6-.857,9.83,9.83,0,0,1-3.5-2.095,6.307,6.307,0,0,1-1.666-2.833,12.017,12.017,0,0,1-.381-2.9,8.283,8.283,0,0,1,4.522-8.021,20.469,20.469,0,0,1,4.475-1.833c1.642-.476,3.309-1,4.975-1.523s3.594-1.238,4.879-1.714a8.521,8.521,0,0,0,3-1.738,5.4,5.4,0,0,0,1.476-2.618,16.662,16.662,0,0,0,.4-4.237,26.3,26.3,0,0,0-.262-3.856,8.021,8.021,0,0,0-1-2.928,4.761,4.761,0,0,0-2.047-1.833,8.878,8.878,0,0,0-3.594-.619,10.235,10.235,0,0,0-4.879,1.024,3.523,3.523,0,0,0-1.928,3.356,18.308,18.308,0,0,0,.262,3.023,12.709,12.709,0,0,1,.286,2.19,2.785,2.785,0,0,1-.9,2.095,3.594,3.594,0,0,1-2.594.857c-1.976,0-3.19-.357-3.666-1.071a4.76,4.76,0,0,1-.738-2.785,8.331,8.331,0,0,1,.9-3.761,9.521,9.521,0,0,1,2.642-3.237,13.377,13.377,0,0,1,4.4-2.19,20.327,20.327,0,0,1,6.046-.809,20.589,20.589,0,0,1,6.9,1.023,12.163,12.163,0,0,1,4.475,2.785,10.235,10.235,0,0,1,2.38,3.951,14.756,14.756,0,0,1,.714,4.618v22.3a5.355,5.355,0,0,0,.809,3.5,2.952,2.952,0,0,0,2.38.9,6.545,6.545,0,0,0,2.071-.357,7.14,7.14,0,0,0,2.071-1.095ZM152.873,56.8h-.19c0,.785-1.095,1.547-2.952,2.38l-6.712,2.69a9.664,9.664,0,0,0-4.4,3.118,8.855,8.855,0,0,0-1.523,5.237,14.279,14.279,0,0,0,.286,2.785,6.854,6.854,0,0,0,.976,2.547,5.474,5.474,0,0,0,2.023,1.857,6.879,6.879,0,0,0,3.356.714,8.307,8.307,0,0,0,4.76-1.262,8,8,0,0,0,2.785-3.142,13.544,13.544,0,0,0,1.262-4.07,27.682,27.682,0,0,0,.309-4Z" transform="translate(101.365 14.989)" fill="#fff"/>
      <path id="Path_6" data-name="Path 6" d="M147.528,92.5H152V56.56h-6.9V55.3H152v-4.76a39.782,39.782,0,0,1,.309-5.427,26.63,26.63,0,0,1,.857-4.046,16.663,16.663,0,0,1,1.261-3.047,13.758,13.758,0,0,1,1.619-2.38,22.636,22.636,0,0,1,5.808-5.165,13.853,13.853,0,0,1,7.45-2.19,13.306,13.306,0,0,1,5.046.857,11.021,11.021,0,0,1,3.451,2.095,7.854,7.854,0,0,1,1.976,2.737,6.664,6.664,0,0,1,.785,2.69,5.355,5.355,0,0,1-1,3.142,3.737,3.737,0,0,1-3.309,1.428,7.284,7.284,0,0,1-2.642-.547,2.166,2.166,0,0,1-1.476-2.38,4.761,4.761,0,0,1,.833-2.737,4.618,4.618,0,0,0,.857-2.737,2.571,2.571,0,0,0-1.618-2.642,8.378,8.378,0,0,0-3.309-.666,8.045,8.045,0,0,0-6.355,3.213,15.543,15.543,0,0,0-2.69,10.045V55.227h11.116v1.262H159.858V92.43H168v1.238H147.623Z" transform="translate(123.062 0)" fill="#fff"/>
      <path id="Path_7" data-name="Path 7" d="M196.42,77.744a12.9,12.9,0,0,1-2.785,1.571,10.116,10.116,0,0,1-3.927.666,8.878,8.878,0,0,1-6.236-1.833,9.806,9.806,0,0,1-2.642-5.165h-.262c-.238.547-.571,1.214-.976,2.023a8.165,8.165,0,0,1-1.928,2.38,10.712,10.712,0,0,1-3.451,1.88,16.828,16.828,0,0,1-5.475.762,17.234,17.234,0,0,1-6-.857,9.83,9.83,0,0,1-3.5-2.095,6.046,6.046,0,0,1-1.642-2.832,11.046,11.046,0,0,1-.4-2.9,8.283,8.283,0,0,1,4.522-8.021,20.47,20.47,0,0,1,4.475-1.833c1.642-.476,3.309-1,4.975-1.523s3.594-1.238,4.76-1.714a8.521,8.521,0,0,0,3-1.738,5.4,5.4,0,0,0,1.476-2.618,16.661,16.661,0,0,0,.4-4.237,23.374,23.374,0,0,0-.262-3.856,8.023,8.023,0,0,0-.976-2.928,4.761,4.761,0,0,0-2.071-1.833,8.878,8.878,0,0,0-3.594-.619,10.283,10.283,0,0,0-4.88,1.024A3.523,3.523,0,0,0,167.1,44.8a16.07,16.07,0,0,0,.286,3.023,14.833,14.833,0,0,1,.262,2.19,2.785,2.785,0,0,1-.9,2.095,3.594,3.594,0,0,1-2.594.857c-1.976,0-3.189-.357-3.666-1.071a4.927,4.927,0,0,1-.714-2.785,8.307,8.307,0,0,1,.881-3.761,9.52,9.52,0,0,1,2.642-3.19,13.377,13.377,0,0,1,4.4-2.19,23.4,23.4,0,0,1,12.949.214,11.9,11.9,0,0,1,4.689,2.737,9.95,9.95,0,0,1,2.38,3.951,14.756,14.756,0,0,1,.714,4.618v22.3a5.356,5.356,0,0,0,.809,3.5,2.952,2.952,0,0,0,2.38.9,6.5,6.5,0,0,0,2.047-.357,7.141,7.141,0,0,0,2.071-1.095Zm-15.686-20.97h-.167c-.143.785-1.119,1.547-2.975,2.38l-6.712,2.69a9.783,9.783,0,0,0-4.4,3.118,8.855,8.855,0,0,0-1.523,5.237,14.28,14.28,0,0,0,.286,2.785,6.854,6.854,0,0,0,.976,2.547,5.474,5.474,0,0,0,2.023,1.857,6.879,6.879,0,0,0,3.356.714,8.307,8.307,0,0,0,4.76-1.262A8,8,0,0,0,179.14,73.7a12.9,12.9,0,0,0,1.262-4.07,27.683,27.683,0,0,0,.309-4Z" transform="translate(139.722 15.019)" fill="#fff"/>
      <path id="Path_8" data-name="Path 8" d="M210.482,68.907a24.712,24.712,0,0,1-1.023,2.832,12.544,12.544,0,0,1-2.38,3.666,14.282,14.282,0,0,1-4.475,3.237,16.662,16.662,0,0,1-7.307,1.381,25.254,25.254,0,0,1-7.141-1.071,20.327,20.327,0,0,1-6.736-3.451,18.114,18.114,0,0,1-4.975-6.236,21.088,21.088,0,0,1-1.928-9.521,20.28,20.28,0,0,1,1.666-8.164,20.922,20.922,0,0,1,4.475-6.522A20.374,20.374,0,0,1,187.3,40.7a21.066,21.066,0,0,1,8.117-1.571,21.636,21.636,0,0,1,4.975.6,16.5,16.5,0,0,1,4.76,1.785,11.092,11.092,0,0,1,3.5,3.142,7.807,7.807,0,0,1,1.4,4.76,4.189,4.189,0,0,1-1.214,3.094,4.761,4.761,0,0,1-3.451,1.214,6.427,6.427,0,0,1-2.9-.666,2.38,2.38,0,0,1-1.4-2.38,9.853,9.853,0,0,1,.619-3.047,9.212,9.212,0,0,0,.643-2.951,3.475,3.475,0,0,0-2.071-3.19,9.878,9.878,0,0,0-4.761-1.119,17.661,17.661,0,0,0-4.094.5,7.331,7.331,0,0,0-3.856,2.38,15.281,15.281,0,0,0-2.856,5.927,41.2,41.2,0,0,0-1.119,10.735,49.984,49.984,0,0,0,.428,7.474,19.041,19.041,0,0,0,1.785,5.974,10.164,10.164,0,0,0,3.594,4.023,10.664,10.664,0,0,0,5.951,1.476,15.638,15.638,0,0,0,6.5-1.166,11.9,11.9,0,0,0,4.023-2.809,12.951,12.951,0,0,0,2.214-3.356q.714-1.714,1.071-2.785Z" transform="translate(163.649 14.978)" fill="#fff"/>
      <path id="Path_9" data-name="Path 9" d="M191.05,76.833h7.022V40.892h-6.9V39.63h14.615v37.2h6.9v1.238H191.264Z" transform="translate(186.484 15.668)" fill="#fff"/>
      <path id="Path_10" data-name="Path 10" d="M240.972,77.788a12.9,12.9,0,0,1-2.856,1.5,10.163,10.163,0,0,1-3.951.666,8.854,8.854,0,0,1-6.212-1.833,9.806,9.806,0,0,1-2.642-5.165h-.19c-.238.547-.571,1.214-.976,2.023a8.165,8.165,0,0,1-1.928,2.38,10.972,10.972,0,0,1-3.451,1.88A16.828,16.828,0,0,1,213.29,80a17.233,17.233,0,0,1-6-.857,9.831,9.831,0,0,1-3.5-2.095,6.308,6.308,0,0,1-1.666-2.833,12.141,12.141,0,0,1-.4-2.9,8.355,8.355,0,0,1,4.546-8.021,20.469,20.469,0,0,1,4.475-1.833c1.642-.476,3.285-1,4.975-1.523s3.594-1.238,4.76-1.714a8.521,8.521,0,0,0,3-1.738,5.4,5.4,0,0,0,1.476-2.618,16.661,16.661,0,0,0,.4-4.237,26.3,26.3,0,0,0-.262-3.856,8.023,8.023,0,0,0-1-2.928,4.761,4.761,0,0,0-2.047-1.833,8.879,8.879,0,0,0-3.594-.619,10.235,10.235,0,0,0-4.76,1.023,3.523,3.523,0,0,0-1.928,3.356,18.3,18.3,0,0,0,.262,3.023,12.7,12.7,0,0,1,.286,2.19,2.785,2.785,0,0,1-.9,2.095,3.594,3.594,0,0,1-2.594.857c-1.976,0-3.189-.357-3.665-1.071a4.76,4.76,0,0,1-.738-2.785,8.332,8.332,0,0,1,.9-3.761,9.521,9.521,0,0,1,2.642-3.19,13.376,13.376,0,0,1,4.4-2.19,20.327,20.327,0,0,1,6.046-.809,20.589,20.589,0,0,1,6.9,1.023,12.163,12.163,0,0,1,4.475,2.785,10.236,10.236,0,0,1,2.38,3.951,14.755,14.755,0,0,1,.714,4.618v22.3a5.356,5.356,0,0,0,.809,3.5,2.952,2.952,0,0,0,2.38.9,6.545,6.545,0,0,0,2.071-.357,7.14,7.14,0,0,0,2.071-1.095Zm-15.686-20.97h-.19c-.119.785-1.095,1.547-2.952,2.38l-6.712,2.69a9.664,9.664,0,0,0-4.4,3.118,8.855,8.855,0,0,0-1.523,5.237,14.273,14.273,0,0,0,.286,2.785,6.854,6.854,0,0,0,.976,2.547,5.474,5.474,0,0,0,2.023,1.857,6.879,6.879,0,0,0,3.356.714,8.307,8.307,0,0,0,4.76-1.262,8,8,0,0,0,2.928-3.047,13.545,13.545,0,0,0,1.262-4.07,31.57,31.57,0,0,0,.309-4Z" transform="translate(201.186 14.975)" fill="#fff"/>
      <path id="Path_11" data-name="Path 11" d="M218.42,92h6.9V29.878h-6.9V28.64h14.615V92h6.9V93.24H218.515Z" transform="translate(224.262 0.499)" fill="#fff"/>
      <path id="Path_12" data-name="Path 12" d="M204.473,67.451a5.665,5.665,0,1,1-11.306,0c0-3.785,5.641-7.141,5.641-7.141S204.473,63.666,204.473,67.451Z" transform="translate(189.39 44.212)" fill="#fff"/>
      <path id="Path_13" data-name="Path 13" d="M232.933,28.66a5.379,5.379,0,0,1,2.642.714A4.761,4.761,0,0,1,237.6,31.35a5.642,5.642,0,0,1,.714,2.713,5.451,5.451,0,0,1-.69,2.69,4.761,4.761,0,0,1-2,1.976,5.427,5.427,0,0,1-5.379,0,4.761,4.761,0,0,1-2-1.976,5.39,5.39,0,0,1,.024-5.4,4.76,4.76,0,0,1,2.023-1.976,5.38,5.38,0,0,1,2.642-.714Zm0,.9a4.76,4.76,0,0,0-2.214.571,4.379,4.379,0,0,0-1.69,1.666,4.593,4.593,0,0,0-.6,2.261,4.451,4.451,0,0,0,.6,2.237,4.308,4.308,0,0,0,1.666,1.666,4.5,4.5,0,0,0,4.475,0,4.308,4.308,0,0,0,1.666-1.666,4.452,4.452,0,0,0,.6-2.237,4.761,4.761,0,0,0-.6-2.261,4.38,4.38,0,0,0-1.69-1.666,4.76,4.76,0,0,0-2.214-.666Zm-2.38,7.474V31.231h1.976a5.4,5.4,0,0,1,1.5.167,1.531,1.531,0,0,1,.547,2.523,1.785,1.785,0,0,1-1.214.524,2,2,0,0,1,.5.309,7,7,0,0,1,.857,1.143l.69,1.143h-1.143l-.5-.9a4.759,4.759,0,0,0-.976-1.357,1.214,1.214,0,0,0-.762-.19h-.547v2.38Zm.928-3.261h1.143a1.714,1.714,0,0,0,1.095-.238.762.762,0,0,0,.309-.643.857.857,0,0,0-.143-.476.833.833,0,0,0-.4-.286,2.618,2.618,0,0,0-.928-.119h-1.071Z" transform="translate(236.836 0.527)" fill="#fff"/>
    </g>
  </g>
</svg>
