<?xml version="1.0" encoding="UTF-8"?> <svg xmlns="http://www.w3.org/2000/svg" id="layer" viewBox="0 0 600 131.7"><style>.st0{fill:#010101}</style><path d="M0 92.8h10V2.9H0V1.1h21.1v51h.3c.4-1.1 1.2-2.5 2.2-4.2s2.4-3.3 4.2-4.8 3.9-2.8 6.5-3.9 5.6-1.6 9.1-1.6c5.7 0 10.4 1.4 13.9 4.2 3.6 2.8 5.4 7.2 5.4 13.2v37.9h10v1.8H41.6v-1.8h10V51c0-3.4-.8-6.1-2.4-8.3-1.6-2.2-4.1-3.2-7.5-3.2-2.8 0-5.4.6-7.9 1.8-2.5 1.2-4.7 2.9-6.6 5.1-1.9 2.2-3.4 4.7-4.5 7.6s-1.6 6.1-1.6 9.6v29.3h10v1.8H0v-1.9z"></path><path d="M68.9 38.9h31.8v1.8H89.8l16.7 40.7L124 40.7h-10.8v-1.8H133v1.8h-7l-21.4 50.1c-1.6 3.7-3.2 7.5-4.7 11.2-1.5 3.8-2.9 7.5-4.4 11.4-1.2 3.1-2.4 5.8-3.6 8.2-1.2 2.3-2.5 4.2-3.8 5.7s-2.8 2.6-4.3 3.3c-1.6.7-3.4 1.1-5.5 1.1-2.5 0-4.5-.4-6-1.2-1.5-.8-2.7-1.7-3.6-2.7s-1.4-2.1-1.7-3.2c-.3-1.1-.4-2.1-.4-2.9 0-2.2.6-3.8 1.8-4.9 1.2-1.1 2.7-1.6 4.4-1.6.6 0 1.3.1 1.9.2s1.3.4 1.9.7c.6.3 1.1.8 1.6 1.4.4.6.7 1.3.7 2.2 0 1.2-.4 2.3-1.1 3.4s-1.1 2.3-1.1 3.6c0 1.1.3 1.9.9 2.2.6.4 1.4.5 2.5.5 1.4 0 2.7-.3 3.8-1 1.2-.6 2.3-1.7 3.4-3.2s2.3-3.4 3.4-5.8 2.4-5.3 3.8-8.8l5.7-14.5-22.4-55.5h-9l.1-1.7zM166.7 1.1h21.1v91.7h10v1.8h-20.9V83.3h-.3c-.3 1-.9 2.3-1.6 3.8-.7 1.5-1.7 2.9-3 4.3s-3 2.6-5.1 3.6-4.5 1.5-7.5 1.5c-3.8 0-7.4-.8-10.8-2.5-3.4-1.6-6.4-3.9-9-6.6-2.6-2.8-4.6-5.9-6.2-9.5-1.5-3.6-2.3-7.4-2.3-11.3s.7-7.6 2.2-11.2c1.5-3.5 3.5-6.6 6-9.3 2.5-2.6 5.4-4.8 8.7-6.4s6.8-2.4 10.5-2.4c4.8 0 8.6 1.2 11.5 3.5s5 5.2 6.2 8.6h.3V2.9h-10V1.1h.2zm-22.5 63.8c0 4.5.1 8.6.4 12.3.3 3.7.9 6.8 1.9 9.4s2.6 4.6 4.7 6c2.1 1.4 4.9 2.1 8.4 2.1 3.6 0 6.5-.8 8.8-2.3 2.2-1.6 3.9-3.6 5.1-6 1.2-2.5 2-5.2 2.5-8.2.4-3 .6-6 .6-8.8 0-3.4-.1-6.3-.2-8.8s-.4-4.6-.7-6.5-.8-3.5-1.4-4.9c-.6-1.4-1.3-2.7-2.2-3.9-1.3-1.7-3-3.2-5.1-4.3-2.1-1.1-4.7-1.7-7.9-1.7-3 0-5.5.6-7.5 1.8-1.9 1.2-3.5 2.9-4.5 5.2-1.1 2.3-1.8 4.9-2.3 8.1-.4 2.9-.6 6.5-.6 10.5M201.7 92.8h10v-52h-10V39h20.9v13.1h.3c.3-1.3.9-2.8 1.7-4.4s1.9-3.2 3.2-4.7c1.4-1.5 3-2.8 5-3.8s4.3-1.6 7.1-1.6c2 0 3.7.3 5.2 1 1.5.6 2.7 1.5 3.6 2.5s1.6 2.1 2.1 3.4c.4 1.3.6 2.6.6 3.9 0 2.9-.6 4.8-2 5.7-1.3 1-2.8 1.4-4.5 1.4-3.8 0-5.7-1.2-5.7-3.6 0-.8.1-1.4.3-1.9.2-.5.4-1 .6-1.4.2-.5.4-1 .6-1.6s.3-1.5.3-2.6c0-2.8-1.5-4.1-4.5-4.1-1.4 0-2.9.5-4.4 1.6-1.6 1-3 2.5-4.3 4.5s-2.5 4.4-3.4 7.2c-.9 2.8-1.4 6-1.4 9.7V93h11.3v1.8h-32.4v-2h-.2zM309.8 93.1c-1.1.9-2.5 1.6-4 2.3-1.5.6-3.5 1-5.7 1-4.1 0-7.2-.9-9-2.7-1.9-1.8-3.1-4.3-3.8-7.5h-.3c-.3.8-.8 1.8-1.4 2.9-.6 1.2-1.5 2.3-2.8 3.4s-2.9 2-5 2.7-4.7 1.1-7.9 1.1c-3.6 0-6.5-.4-8.7-1.2-2.2-.8-3.8-1.8-5.1-3-1.2-1.2-2-2.6-2.4-4.1s-.6-2.9-.6-4.2c0-3 .6-5.5 1.8-7.3 1.2-1.8 2.8-3.3 4.7-4.3 1.9-1.1 4.1-2 6.5-2.7s4.8-1.4 7.2-2.2c2.9-1 5.2-1.8 7.1-2.5s3.3-1.5 4.3-2.5 1.7-2.3 2.1-3.8.6-3.6.6-6.2c0-2.1-.1-3.9-.4-5.6-.3-1.6-.7-3.1-1.4-4.2-.7-1.2-1.7-2.1-3-2.7s-3-.9-5.2-.9c-2.9 0-5.2.5-7.1 1.5s-2.8 2.6-2.8 4.9c0 1.5.1 2.9.4 4.3s.4 2.5.4 3.2c0 1.2-.4 2.2-1.3 3s-2.1 1.2-3.8 1.2c-2.9 0-4.6-.5-5.3-1.6-.7-1-1-2.4-1-4 0-1.9.4-3.7 1.3-5.5.9-1.7 2.1-3.3 3.8-4.6 1.7-1.3 3.8-2.4 6.4-3.2 2.5-.8 5.5-1.2 8.8-1.2 4 0 7.3.5 10 1.5s4.8 2.3 6.5 4c1.6 1.7 2.8 3.6 3.5 5.7s1 4.3 1 6.7v32.3c0 2.5.4 4.2 1.2 5.1.8.9 1.9 1.3 3.4 1.3.9 0 1.9-.2 3-.5 1-.3 2-.9 3-1.6l1 1.7zm-22.7-30.3h-.3c-.2 1.1-1.6 2.3-4.3 3.4l-9.7 3.9c-2.8 1.1-4.9 2.7-6.4 4.7s-2.2 4.6-2.2 7.6c0 1.3.1 2.6.4 4s.7 2.6 1.4 3.7 1.7 2 2.9 2.7c1.3.7 2.9 1 4.9 1 2.9 0 5.2-.6 6.9-1.8 1.8-1.2 3.1-2.7 4-4.5s1.5-3.8 1.8-5.9.5-4 .5-5.8c.1 0 .1-13 .1-13zM310.7 92.8h6.5v-52h-10V39h10v-6.9c0-3 .1-5.6.5-7.8.3-2.2.7-4.2 1.2-5.8.5-1.7 1.1-3.2 1.8-4.4.7-1.3 1.5-2.4 2.3-3.4 2.2-2.9 5.1-5.3 8.4-7.5 3.4-2.1 7-3.2 10.8-3.2 2.9 0 5.3.4 7.3 1.2 2 .8 3.7 1.8 5 3s2.2 2.5 2.8 4c.6 1.4.9 2.7.9 3.8 0 1.6-.5 3.2-1.4 4.5-1 1.4-2.6 2.1-4.8 2.1-1.1 0-2.4-.3-3.8-.8s-2.1-1.6-2.1-3.4c0-1.5.4-2.8 1.2-4 .8-1.2 1.2-2.5 1.2-4 0-1.9-.8-3.2-2.3-3.8-1.5-.6-3.2-1-4.8-1-3.5 0-6.6 1.6-9.2 4.7s-3.9 8-3.9 14.5v18h16.1v1.8h-16.1v52h11.8v1.8h-29.5l.1-1.6zM405.6 93.1c-1.1.9-2.5 1.6-4 2.3-1.6.6-3.5 1-5.7 1-4.2 0-7.2-.9-9-2.7-1.9-1.8-3.1-4.3-3.8-7.5h-.3c-.4.8-.8 1.8-1.4 2.9-.6 1.2-1.5 2.3-2.8 3.4s-2.9 2-5 2.7-4.7 1.1-7.9 1.1c-3.6 0-6.5-.4-8.7-1.2-2.2-.8-3.8-1.8-5.1-3-1.2-1.2-2-2.6-2.4-4.1s-.6-2.9-.6-4.2c0-3 .6-5.5 1.8-7.3 1.2-1.8 2.8-3.3 4.7-4.3 1.9-1.1 4.1-2 6.5-2.7s4.8-1.4 7.2-2.2c2.9-1 5.2-1.8 7.1-2.5s3.3-1.5 4.3-2.5 1.8-2.3 2.1-3.8c.4-1.5.6-3.6.6-6.2 0-2.1-.1-3.9-.4-5.6-.3-1.6-.7-3.1-1.4-4.2-.7-1.2-1.7-2.1-3-2.7s-3-.9-5.2-.9c-2.9 0-5.2.5-7.1 1.5s-2.8 2.6-2.8 4.9c0 1.5.1 2.9.4 4.3s.4 2.5.4 3.2c0 1.2-.4 2.2-1.3 3S360.7 57 359 57c-2.8 0-4.6-.5-5.3-1.6-.7-1-1-2.4-1-4 0-1.9.4-3.7 1.3-5.5.9-1.7 2.1-3.3 3.8-4.6 1.7-1.3 3.8-2.4 6.4-3.2 2.5-.8 5.5-1.2 8.8-1.2 4 0 7.3.5 10 1.5s4.8 2.3 6.5 4c1.6 1.7 2.8 3.6 3.5 5.7s1 4.3 1 6.7v32.3c0 2.5.4 4.2 1.2 5.1.8.9 1.9 1.3 3.4 1.3 1 0 1.9-.2 3-.5 1-.3 2-.9 3-1.6l1 1.7zm-22.7-30.3h-.3c-.2 1.1-1.6 2.3-4.3 3.4l-9.7 3.9c-2.8 1.1-4.9 2.7-6.4 4.7s-2.2 4.6-2.2 7.6c0 1.3.1 2.6.4 4s.7 2.6 1.4 3.7 1.7 2 2.9 2.7c1.3.7 2.9 1 4.9 1 2.9 0 5.2-.6 6.9-1.8 1.8-1.2 3.1-2.7 4-4.5s1.5-3.8 1.8-5.9.5-4 .5-5.8l.1-13zM460.6 80.3c-.3 1-.8 2.3-1.5 4.1-.7 1.8-1.9 3.5-3.5 5.3s-3.8 3.3-6.5 4.7c-2.7 1.3-6.3 2-10.6 2-3.3 0-6.7-.5-10.3-1.6-3.5-1-6.8-2.7-9.7-5-2.9-2.3-5.3-5.3-7.2-9-1.9-3.7-2.8-8.3-2.8-13.8 0-4.2.8-8.2 2.4-11.8 1.6-3.6 3.8-6.8 6.5-9.5s5.9-4.8 9.6-6.3 7.6-2.3 11.7-2.3c2.3 0 4.7.3 7.2.8 2.5.6 4.7 1.4 6.7 2.6s3.7 2.7 5.1 4.5c1.3 1.9 2 4.1 2 6.8 0 1.8-.6 3.3-1.7 4.5-1.2 1.2-2.8 1.8-5 1.8-1.5 0-2.9-.3-4.2-1-1.4-.6-2-1.8-2-3.3 0-1.2.3-2.7.9-4.4.6-1.7.9-3.2.9-4.3 0-2-1-3.5-3-4.6s-4.3-1.6-6.9-1.6c-1.9 0-3.9.2-5.9.7s-3.9 1.7-5.6 3.6-3.1 4.8-4.2 8.6-1.6 9-1.6 15.6c0 3.7.2 7.2.7 10.5s1.3 6.2 2.6 8.6c1.3 2.5 3 4.4 5.2 5.8s5.1 2.1 8.6 2.1c3.8 0 6.9-.6 9.4-1.7s4.4-2.5 5.8-4.1 2.5-3.2 3.2-4.9c.7-1.6 1.2-3 1.6-4l2.1.6zM465.5 92.8h10V40.7h-10v-1.8h21.2v53.9h10v1.8h-31.2zM559.1 93.1c-1.1.9-2.5 1.6-4 2.3-1.6.6-3.5 1-5.7 1-4.2 0-7.2-.9-9-2.7-1.9-1.8-3.1-4.3-3.8-7.5h-.3c-.3.8-.8 1.8-1.4 2.9-.6 1.2-1.5 2.3-2.8 3.4s-2.9 2-5 2.7-4.7 1.1-7.9 1.1c-3.6 0-6.5-.4-8.7-1.2-2.2-.8-3.8-1.8-5.1-3-1.2-1.2-2-2.6-2.4-4.1s-.6-2.9-.6-4.2c0-3 .6-5.5 1.8-7.3s2.8-3.3 4.7-4.3c2-1.1 4.1-2 6.5-2.7s4.8-1.4 7.2-2.2c2.9-1 5.2-1.8 7.1-2.5 1.9-.7 3.3-1.5 4.3-2.5s1.8-2.3 2.1-3.8c.4-1.5.6-3.6.6-6.2 0-2.1-.1-3.9-.4-5.6-.3-1.6-.7-3.1-1.4-4.2-.7-1.2-1.7-2.1-3-2.7s-3-.9-5.2-.9c-2.8 0-5.2.5-7.1 1.5-1.9 1-2.8 2.6-2.8 4.9 0 1.5.1 2.9.4 4.3.3 1.4.4 2.5.4 3.2 0 1.2-.4 2.2-1.3 3-.9.8-2.1 1.2-3.8 1.2-2.8 0-4.6-.5-5.3-1.6-.7-1-1-2.4-1-4 0-1.9.4-3.7 1.3-5.5.9-1.7 2.1-3.3 3.8-4.6s3.8-2.4 6.4-3.2c2.6-.8 5.5-1.2 8.8-1.2 4 0 7.3.5 10 1.5s4.8 2.3 6.5 4c1.6 1.7 2.8 3.6 3.5 5.7s1 4.3 1 6.7v32.3c0 2.5.4 4.2 1.2 5.1s1.9 1.3 3.4 1.3c.9 0 1.9-.2 3-.5 1-.3 2-.9 3-1.6l1 1.7zm-22.7-30.3h-.3c-.2 1.1-1.6 2.3-4.3 3.4l-9.7 3.9c-2.8 1.1-4.9 2.7-6.4 4.7s-2.2 4.6-2.2 7.6c0 1.3.1 2.6.4 4 .3 1.4.7 2.6 1.4 3.7s1.7 2 2.9 2.7c1.3.7 2.9 1 4.9 1 2.8 0 5.2-.6 6.9-1.8 1.8-1.2 3.1-2.7 4-4.5s1.5-3.8 1.8-5.9.5-4 .5-5.8l.1-13zM559.8 92.8h10V2.9h-10V1.1H581v91.7h10v1.8h-31.2zM600 5.1c0 2.3-1.8 4.1-4.2 4.1-2.3 0-4.2-1.8-4.2-4.1s1.9-4.1 4.2-4.1c2.4.1 4.2 1.9 4.2 4.1m-7.4 0c0 1.8 1.3 3.3 3.2 3.3 1.8 0 3.1-1.5 3.1-3.2 0-1.8-1.3-3.3-3.1-3.3s-3.2 1.4-3.2 3.2m2.6 2.2h-.9V3.2c.4-.1.9-.1 1.6-.1.8 0 1.1.1 1.4.3.2.2.4.5.4.9s-.3.8-.8.9v.1c.4.1.6.4.7 1 .1.6.2.9.3 1h-1c-.1-.2-.2-.5-.3-1s-.3-.6-.8-.6h-.5c-.1-.1-.1 1.6-.1 1.6zm0-2.3h.5c.5 0 .9-.2.9-.6s-.3-.6-.9-.6c-.3 0-.4 0-.5.1V5z"></path><path class="st0" d="M489.2 120.5c0 4.5-3.7 8.2-8.2 8.2s-8.2-3.7-8.2-8.2c0-5.5 8.2-10.2 8.2-10.2s8.2 4.7 8.2 10.2"></path></svg> 